<?xml version="1.0" encoding="UTF-8" standalone="no"?>
<svg
   xmlns:dc="http://purl.org/dc/elements/1.1/"
   xmlns:cc="http://creativecommons.org/ns#"
   xmlns:rdf="http://www.w3.org/1999/02/22-rdf-syntax-ns#"
   xmlns:svg="http://www.w3.org/2000/svg"
   xmlns="http://www.w3.org/2000/svg"
   xmlns:sodipodi="http://sodipodi.sourceforge.net/DTD/sodipodi-0.dtd"
   xmlns:inkscape="http://www.inkscape.org/namespaces/inkscape"
   width="128"
   height="128"
   viewBox="0 0 33.866666 33.866668"
   version="1.1"
   id="svg8"
   sodipodi:docname="iconmonstr-product-6.svg"
   inkscape:version="1.0.2 (e86c870879, 2021-01-15, custom)">
  <defs
     id="defs2" />
  <sodipodi:namedview
     id="base"
     pagecolor="#ffffff"
     bordercolor="#666666"
     borderopacity="1.0"
     inkscape:pageopacity="0.0"
     inkscape:pageshadow="2"
     inkscape:zoom="3.959798"
     inkscape:cx="65.586104"
     inkscape:cy="57.530216"
     inkscape:document-units="mm"
     inkscape:current-layer="layer1"
     inkscape:document-rotation="0"
     showgrid="false"
     units="px"
     inkscape:window-width="1920"
     inkscape:window-height="1001"
     inkscape:window-x="-9"
     inkscape:window-y="-9"
     inkscape:window-maximized="1" />
  <metadata
     id="metadata5">
    <rdf:RDF>
      <cc:Work
         rdf:about="">
        <dc:format>image/svg+xml</dc:format>
        <dc:type
           rdf:resource="http://purl.org/dc/dcmitype/StillImage" />
        <dc:title></dc:title>
      </cc:Work>
    </rdf:RDF>
  </metadata>
  <g
     inkscape:label="Capa 1"
     inkscape:groupmode="layer"
     id="layer1">
    <g
       style="clip-rule:evenodd;fill-rule:evenodd;fill:#ffa50f;fill-opacity:1"
       id="g868"
       transform="matrix(1.2408595,0,0,1.2408595,2.0974324,1.814031)">
      <path
         d="m 17.281,8.991 3.706,1.97 -2.261,2.013 0.011,0.006 2.25,3.09 -2.25,1.228 v 3.096 L 11.987,24 5.237,20.394 V 17.303 L 2.987,16.078 5.221,13.003 2.987,11.037 6.734,8.994 C 6.626,9.365 6.537,9.802 6.489,10.266 L 4.72,11.23 5.901,12.27 6.525,11.925 c 0.056,0.339 0.146,0.672 0.279,0.984 l -0.823,0.456 6.028,3.124 5.978,-3.119 -0.812,-0.451 c 0.145,-0.299 0.245,-0.618 0.31,-0.944 l 0.531,0.293 1.234,-1.098 -1.707,-0.907 c -0.05,-0.464 -0.146,-0.9 -0.262,-1.272 z m -4.798,8.217 v 5.393 l 5.256,-2.807 v -1.951 l -3.502,1.91 z m -6.247,0.639 v 1.947 l 5.249,2.804 V 17.21 l -1.748,2.543 z m -1.772,-2.103 4.96,2.7 1.099,-1.599 -4.983,-2.582 z m 8.989,1.11 1.096,1.59 4.96,-2.706 -1.073,-1.475 z m -1.199,-1.691 h -0.625 l 0.003,-2.728 h 0.625 z M 11.095,13.739 H 10.47 L 10.479,12 h 0.625 z m 2.358,-0.014 H 12.827 L 12.818,12 h 0.625 z M 10.359,11.257 10.041,10.523 C 9.309,10.792 7.886,12.807 7.886,12.807 6.691,10.2 8.047,7.961 9.129,7.148 9.046,6.449 8.485,2.98 11.946,0.035 L 11.987,0 12.028,0.035 c 3.462,2.945 2.901,6.414 2.817,7.113 1.083,0.813 2.438,3.052 1.243,5.659 0,0 -1.423,-2.015 -2.155,-2.284 l -0.317,0.734 -1.629,0.005 z M 11.987,1.338 C 10.894,2.261 9.555,4.731 10.133,7.561 9.407,8.161 8.553,9.015 8.421,10.65 8.998,9.88 9.84,9.44 10.512,9.294 c 0,0 0.424,0.782 0.507,0.973 l 0.968,0.003 0.969,-0.003 C 13.039,10.076 13.463,9.294 13.463,9.294 14.134,9.44 14.976,9.88 15.554,10.65 15.421,9.015 14.587,8.178 13.861,7.578 14.447,4.856 13.09,2.283 12,1.349 Z M 11.943,7.031 C 11.659,7.03 11.428,6.8 11.428,6.515 11.428,6.23 11.659,6 11.943,6 c 0.284,0 0.514,0.23 0.514,0.515 0,0.285 -0.23,0.515 -0.514,0.516 z m 0,-1.844 c -0.569,0 -1.029,-0.462 -1.03,-1.031 10e-4,-0.57 0.461,-1.031 1.03,-1.031 0.569,0 1.029,0.461 1.029,1.031 0,0.569 -0.46,1.03 -1.029,1.031 z m 0,-1.434 c 0.214,0 0.388,0.174 0.388,0.389 0,0.215 -0.174,0.389 -0.388,0.389 -0.215,0 -0.389,-0.174 -0.389,-0.389 0,-0.215 0.174,-0.389 0.389,-0.389 z"
         id="path857"
         style="fill:#ffa50f;fill-opacity:1" />
    </g>
  </g>
</svg>
